<?xml version="1.0" encoding="utf-8"?>
<!-- Generator: Adobe Illustrator 22.0.0, SVG Export Plug-In . SVG Version: 6.00 Build 0)  -->
<svg version="1.1" id="Layer_1" xmlns="http://www.w3.org/2000/svg" xmlns:xlink="http://www.w3.org/1999/xlink" x="0px" y="0px"
	 viewBox="0 0 400 225" style="enable-background:new 0 0 400 225;" xml:space="preserve">
<style type="text/css">
	.st0{fill:#191919;}
	.st1{fill:#595957;}
	.st2{font-family:'MyriadPro-Regular';}
	.st3{font-size:36.7987px;}
</style>
<image style="overflow:visible;" width="1250" height="1250" xlink:href="../../../05282018/unit-4-game/assets/images/purple.jpg"  transform="matrix(6.400000e-02 0 0 6.400000e-02 0 72)">
</image>
<image style="overflow:visible;" width="1250" height="1250" xlink:href="../../../05282018/unit-4-game/assets/images/yellow.jpg"  transform="matrix(6.400000e-02 0 0 6.400000e-02 80 72)">
</image>
<image style="overflow:visible;" width="1250" height="1250" xlink:href="../../../05282018/unit-4-game/assets/images/pink.jpg"  transform="matrix(6.400000e-02 0 0 6.400000e-02 240 72)">
</image>
<image style="overflow:visible;" width="1250" height="1250" xlink:href="../../../05282018/unit-4-game/assets/images/blue.jpg"  transform="matrix(6.400000e-02 0 0 6.400000e-02 160 72)">
</image>
<image style="overflow:visible;" width="1250" height="1250" xlink:href="../../../05282018/unit-4-game/assets/images/green.jpg"  transform="matrix(6.400000e-02 0 0 6.400000e-02 320 72)">
</image>
<rect class="st0" width="400" height="72"/>
<rect y="152" class="st0" width="400" height="73"/>
<text transform="matrix(1 0 0 1 133.1387 43.2793)" class="st1 st2 st3">CRYSTAL</text>
<text transform="matrix(1 0 0 1 146.2207 195.7793)" class="st1 st2 st3">PICKER</text>
</svg>
